<svg width="15" height="30" viewBox="0 0 15 30" fill="none" xmlns="http://www.w3.org/2000/svg">
<path d="M3.78857 30H6.27295L6.28467 27.3164C11.312 26.9531 14.1948 24.1875 14.2065 20.2617C14.1948 16.1016 10.7612 14.2031 7.15186 13.3477L6.37842 13.1484L6.42529 6.45703C8.30029 6.78515 9.50732 7.91016 9.69482 9.59766H13.8784C13.8081 5.87109 10.8784 3.15234 6.44873 2.73047L6.46045 -1.78814e-06H3.97607L3.96436 2.73047C-0.430176 3.17578 -3.59424 5.87109 -3.58252 9.75C-3.58252 13.1953 -1.1333 15.1758 2.81592 16.1953L3.87061 16.4648L3.82373 23.5547C1.72607 23.2266 0.214355 22.0312 0.062012 19.9102H-4.21533C-4.05127 24.3047 -1.02783 26.918 3.80029 27.3164L3.78857 30ZM6.30811 23.5547L6.35498 17.1211C8.48779 17.7422 9.84717 18.5625 9.85889 20.2266C9.84717 21.9609 8.45264 23.2031 6.30811 23.5547ZM3.89404 12.5156C2.27686 12 0.800293 11.1445 0.823731 9.48047C0.835449 7.96875 1.97217 6.79687 3.94092 6.45703L3.89404 12.5156Z" fill="#404040"/>
</svg>
