<svg width="45" height="53" viewBox="0 0 45 53" fill="none" xmlns="http://www.w3.org/2000/svg">
<path d="M37.4766 18.1211C37.016 13.4264 32.9381 11.8692 27.7918 11.4425L27.7824 4.92794L23.7961 4.94522L23.8054 11.2881C22.7574 11.2927 21.6863 11.3178 20.622 11.3434L20.6135 4.95854L16.6294 4.97528L16.6372 11.488C15.7741 11.5092 14.9266 11.5287 14.1002 11.5328L14.0996 11.5126L8.60153 11.534L8.60861 15.7691C8.60861 15.7691 11.5523 15.7008 11.5034 15.7549C13.1181 15.7486 13.6449 16.6788 13.7989 17.4828L13.8099 24.9043C13.9213 24.9044 14.0667 24.9084 14.2313 24.9302C14.0985 24.9309 13.9563 24.9306 13.8102 24.9325L13.824 35.3292C13.7538 35.835 13.4563 36.6422 12.3282 36.649C12.3793 36.6937 9.43045 36.6604 9.43045 36.6604L8.64516 41.3995L13.8328 41.3773C14.7982 41.3744 15.748 41.3866 16.6806 41.3886L16.6916 47.9773L20.6737 47.9611L20.6643 41.442C21.7576 41.4599 22.8157 41.464 23.8487 41.4587L23.8563 47.9478L27.8426 47.9305L27.8344 41.3535C34.5357 40.9426 39.2239 39.2432 39.7974 32.9804C40.2605 27.9374 37.8735 25.6982 34.0679 24.8056C36.3774 23.6251 37.8194 21.5563 37.4766 18.1211ZM31.9196 32.2329C31.9288 37.1567 23.4527 36.6325 20.751 36.6465L20.7396 27.9168C23.442 27.906 31.9126 27.0973 31.9196 32.2329ZM30.0481 19.9244C30.0532 24.404 22.9841 23.9112 20.7338 23.9209L20.7227 16.0035C22.973 15.9938 30.0409 15.252 30.0481 19.9244Z" fill="white"/>
</svg>
