<svg width="22" height="43" viewBox="0 0 22 43" fill="none" xmlns="http://www.w3.org/2000/svg">
<path d="M10.3232 42.622L0.486206 26.4085C0.0424338 25.6772 0.965335 24.8887 1.65299 25.4118L10.517 32.1547C10.8028 32.3722 11.2041 32.3722 11.49 32.1547L20.3541 25.4118C21.0418 24.8887 21.9647 25.6772 21.5209 26.4085L11.6837 42.622C11.3781 43.126 10.629 43.126 10.3232 42.622Z" fill="#5383FF"/>
<path d="M0.0905128 19.3276L10.2922 0.411518C10.5903 -0.141332 11.4056 -0.136045 11.6962 0.420755L21.9142 19.9991C22.0986 20.3523 21.9771 20.7839 21.6334 20.9963L11.4476 27.2918C11.1785 27.4582 10.833 27.4508 10.5716 27.2732L0.337697 20.3152C0.0116255 20.0935 -0.0942874 19.6703 0.0905128 19.3276Z" fill="#5383FF"/>
</svg>
